<?xml version="1.0" encoding="UTF-8"?>
<!DOCTYPE svg PUBLIC "-//W3C//DTD SVG 1.1//EN" "http://www.w3.org/Graphics/SVG/1.1/DTD/svg11.dtd">
<!-- Creator: CorelDRAW (Evaluation Version) -->
<svg xmlns="http://www.w3.org/2000/svg" xml:space="preserve" width="8.5in" height="11in" version="1.1" style="shape-rendering:geometricPrecision; text-rendering:geometricPrecision; image-rendering:optimizeQuality; fill-rule:evenodd; clip-rule:evenodd"
viewBox="0 0 8500 11000"
 xmlns:xlink="http://www.w3.org/1999/xlink"
 xmlns:xodm="http://www.corel.com/coreldraw/odm/2003">
 <defs>
  <style type="text/css">
   <![CDATA[
    .str0 {stroke:white;stroke-width:3;stroke-miterlimit:2.61313}
    .str1 {stroke:#1986DF;stroke-width:3;stroke-miterlimit:2.61313}
    .fil3 {fill:none;fill-rule:nonzero}
    .fil1 {fill:white;fill-rule:nonzero}
    .fil0 {fill:#2D2A2B;fill-rule:nonzero}
    .fil2 {fill:#1986DF;fill-rule:nonzero}
   ]]>
  </style>
 </defs>
 <g id="Layer_x0020_1">
  <metadata id="CorelCorpID_0Corel-Layer"/>
  <path class="fil0" d="M-31958.81 2423.89c4400,0 8800,0 13333.33,0 0,4400 0,8800 0,13333.33 -4400,0 -8800,0 -13333.33,0 0,-4400 0,-8800 0,-13333.33z"/>
  <path class="fil1" d="M2666.3 5444.68c14.55,-0.05 29.09,-0.11 43.64,-0.18 39.35,-0.15 78.69,-0.13 118.03,-0.07 32.91,0.03 65.82,-0.02 98.73,-0.06 77.67,-0.12 155.33,-0.09 233,0.02 79.99,0.11 159.98,0.01 239.97,-0.21 68.81,-0.18 137.63,-0.23 206.44,-0.17 41.04,0.04 82.08,0.02 123.12,-0.12 38.6,-0.13 77.2,-0.08 115.8,0.08 14.12,0.04 28.24,0.01 42.36,-0.07 94.54,-0.53 167.78,5.52 245.69,65.3 3.79,2.67 7.59,5.34 11.5,8.09 55.32,42 82.27,108.28 96.78,174.63 2.9,26.72 3.22,53.08 2.96,79.94 -0.04,7.56 -0.09,15.13 -0.13,22.93 -1.5,83.18 -13,164.55 -26.32,246.55 -3.23,20.54 -5.99,41.07 -8.55,61.7 -36.11,268.79 -170.04,518.68 -342.7,723.67 -3.46,4.15 -6.93,8.3 -10.5,12.57 -18.05,21.06 -76.89,80.4 -98.19,99.51 -3.61,3.27 -7.22,6.54 -10.94,9.91 -34.11,30.41 -70.37,57.11 -107.91,83.14 -5.17,3.79 -10.33,7.57 -15.65,11.48 -138.36,100.5 -294.69,171.95 -455.1,229.19 -4.75,1.72 -9.5,3.44 -14.4,5.2 -67.68,24.3 -134.25,40.09 -205.11,51.89 -12.63,2.42 -25.25,4.89 -37.85,7.43 -5.57,1.09 -11.15,2.19 -16.89,3.31 -10.88,2.15 -21.75,4.31 -32.62,6.51 -18.21,3.55 -36.45,6.75 -54.75,9.82 -7.3,1.24 -14.59,2.48 -22.11,3.76 -81.41,12.04 -162.71,12.06 -244.89,11.91 -24.39,-0.02 -48.78,0.14 -73.18,0.31 -188.54,0.5 -188.54,0.5 -248.57,-29.52 1.76,-69.8 8.07,-137.89 19.46,-206.83 1.63,-10.13 1.63,-10.13 3.31,-20.46 7.05,-40.88 17.25,-78.89 31.37,-117.85 3.26,-9.69 6.5,-19.38 9.73,-29.08 40.94,-118.34 97.14,-229.71 172.98,-329.59 4.67,-6.17 9.33,-12.33 14.14,-18.69 26.96,-34.62 55.71,-66.03 87.37,-96.35 5.17,-5.3 10.33,-10.61 15.65,-16.07 78.04,-76.22 162.94,-146.31 261.81,-193.71 4.31,-2.1 8.63,-4.2 13.07,-6.37 126.92,-61.23 251.13,-95.14 392.96,-95.14 0,66.99 0,133.99 0,203.02 13.4,-10.33 26.8,-20.66 40.6,-31.3 25.11,-19.35 50.26,-38.63 75.71,-57.52 19.11,-14.24 37.72,-28.99 56.25,-43.99 34.1,-27.45 69.05,-53.67 104.13,-79.84 29.76,-22.22 59.35,-44.65 88.74,-67.35 36.31,-28.03 72.75,-55.85 109.81,-82.9 4.94,-3.63 9.87,-7.26 14.96,-11 4.46,-3.25 8.92,-6.49 13.51,-9.83 14.92,-13.15 23.9,-12.81 12.59,-18.02 -5.26,-2.43 -14.94,-6.06 -30.47,-12.82 -11.7,-5.09 -25.33,-8.97 -32.85,-12.28 -6.46,-2.82 -12.93,-5.65 -19.59,-8.56 -6.8,-3.01 -13.59,-6.02 -20.6,-9.13 -7.01,-3.08 -14.03,-6.15 -21.25,-9.33 -42.45,-18.69 -84.57,-37.94 -126.57,-57.61 -30.56,-13.77 -61.62,-26.24 -92.69,-38.81 -41.77,-17.05 -82.46,-35.95 -123.1,-55.53 -24.79,-11.68 -24.79,-11.68 -62.73,-23.56 0,75.93 0,151.86 0,230.09 -86.83,0.46 -173.66,0.83 -260.49,1.05 -40.33,0.11 -80.65,0.25 -120.98,0.48 -38.96,0.22 -77.93,0.34 -116.89,0.39 -14.82,0.04 -29.63,0.11 -44.45,0.22 -113.02,0.81 -218.65,0.57 -304.78,-82.51 -8.58,-9.19 -17.05,-18.49 -25.38,-27.91 -5.04,-5.41 -5.04,-5.41 -10.18,-10.92 -45.51,-54.75 -50.17,-137.48 -43.96,-205.64 8.07,-61.82 24.73,-103.64 67.67,-148.88 4.1,-4.46 8.2,-8.93 12.43,-13.54 81.12,-85.02 176.87,-85.2 287.05,-84.81z"/>
  <path class="fil1 str0" d="M2539.85 4036.66c24.11,0.23 48.2,0.14 72.31,0.01 142.57,0.07 277.88,20.39 414.47,60.71 9.33,2.7 18.66,5.4 28,8.1 97.95,28.58 189.69,63.52 280.11,110.95 13.24,6.94 26.54,13.76 39.85,20.57 146.8,75.87 146.8,75.87 162.97,108.22 -4.43,0.27 -8.85,0.54 -13.41,0.81 -164.87,10.49 -305.7,40.83 -426.47,161.6 -58.24,-9.52 -114.13,-29.76 -170.15,-47.9 -110.11,-34.78 -219.83,-41.34 -334.5,-41.33 -15.96,-0.02 -31.92,-0.14 -47.88,-0.27 -53.78,-0.2 -104.89,2.19 -158,11.73 -20.38,3.33 -40.28,4.85 -60.89,6.05 -45.03,3.42 -86.42,14.96 -129.48,28.15 -7.94,2.39 -15.87,4.78 -24.05,7.25 -84.3,26.13 -162.81,59.69 -239.03,103.99 -7.58,4.15 -15.16,8.3 -22.97,12.58 -43.51,24.07 -83.32,48.66 -121.54,80.73 -13.8,11.54 -27.71,22.71 -41.93,33.73 -4.21,3.26 -8.42,6.53 -12.76,9.89 -8.24,6.37 -16.48,12.74 -24.74,19.09 -24.09,18.76 -45.85,38.45 -67.05,60.53 -3.19,3.27 -6.38,6.54 -9.66,9.9 -131.32,135.07 -222.42,290.34 -294.87,463.81 -2.83,6.6 -5.65,13.21 -8.56,20.01 -99.86,251.63 -96.04,541.64 -22.37,798.38 3.74,13.52 6.98,27.07 10.16,40.74 44.78,180.91 155.32,350.16 277.93,487.56 4.88,5.7 9.75,11.39 14.78,17.26 28.89,33.51 59.71,62.54 93.5,91.02 8.6,7.75 17.2,15.5 25.8,23.26 47.49,41.41 99.45,76.62 152.26,110.81 3.89,2.53 7.78,5.05 11.78,7.65 23.99,15.33 48.41,28.68 74.08,40.99 -1.31,5.41 -2.62,10.81 -3.96,16.39 -1.76,7.43 -3.52,14.87 -5.34,22.52 -1.72,7.22 -3.45,14.44 -5.23,21.89 -15.92,71.97 -24.46,145.29 -33.68,218.35 -1.24,9.74 -2.48,19.48 -3.72,29.21 -3,23.54 -5.99,47.07 -8.96,70.61 -96.5,-30.46 -179.54,-80.61 -263.93,-135.34 -7.43,-4.78 -14.86,-9.55 -22.52,-14.46 -83.79,-54.68 -155.84,-119.56 -227.87,-188.56 -3.94,-3.75 -7.89,-7.5 -11.94,-11.36 -52.04,-49.68 -98.37,-101.64 -141.41,-159.3 -8.99,-11.98 -18.17,-23.8 -27.37,-35.62 -82.08,-106.74 -143.14,-226.22 -198.24,-348.65 -2.34,-5.11 -4.69,-10.22 -7.1,-15.48 -16.07,-35.41 -29.18,-71.07 -41.15,-108.1 -6.52,-20.14 -13.14,-40.18 -20.35,-60.09 -15.45,-42.96 -23.93,-84.01 -29.55,-129.29 -2.97,-22.47 -6.68,-44.56 -10.83,-66.83 -31.15,-167.39 -39.06,-337.98 -12.83,-506.72 0.98,-6.87 1.97,-13.73 2.98,-20.81 16.23,-111.7 43.13,-213.7 84.5,-318.65 7.49,-19.81 14.05,-39.76 20.51,-59.93 13.28,-40.4 29.98,-78.38 48.5,-116.63 4.85,-10.07 4.85,-10.07 9.79,-20.33 28.7,-58.55 61.53,-113.26 97.65,-167.46 3.74,-5.86 7.48,-11.72 11.34,-17.76 21.13,-32.81 44.55,-63.29 69.26,-93.48 8.97,-10.99 17.78,-22.12 26.38,-33.41 73.16,-94.21 162.59,-183.54 258.45,-254.62 5.75,-4.35 11.5,-8.71 17.42,-13.19 51.45,-38.23 104.81,-73.69 158.53,-108.62 3.96,-2.59 7.94,-5.18 12.02,-7.85 41.28,-26.76 81.35,-50.23 127.6,-67.15 16.41,-6.36 31.38,-14 46.89,-22.28 197.74,-100.25 436.94,-145.95 656.47,-143.61z"/>
  <path class="fil1" d="M2563.91 4565.59c5.72,-0.04 11.45,-0.08 17.34,-0.13 110.01,-0.52 213.86,13.96 319.76,44.11 6.38,1.73 12.76,3.46 19.33,5.25 26.24,7.3 46.19,12.92 69.06,28.17 -7.09,17.85 -14.29,35.61 -21.78,53.3 -43.39,105.82 -40.92,206.22 -39.13,318.91 -26.11,-4.87 -48.6,-12.23 -73.17,-22.41 -202.24,-79.29 -411.23,-64.6 -610.32,15.65 -63.07,27.61 -116.82,63.56 -169.18,108.28 -11.42,8.6 -22.84,17.2 -34.26,25.8 -58.24,46.65 -100.45,108.9 -141.69,170.45 -3.06,4.34 -6.11,8.69 -9.25,13.17 -76.76,113.95 -102.04,260.38 -101.98,394.98 -0,5.09 -0.01,10.18 -0.02,15.42 0.55,214.96 82.85,409.24 233.91,563.19 53.61,53.15 122.85,112.43 195.41,136.61 -10.73,24 -25.33,43.16 -41.45,63.87 -57.21,75.11 -100.3,155.96 -141.27,240.66 -2.23,4.47 -4.46,8.93 -6.77,13.54 -36.11,-10.02 -64.52,-26.69 -95.59,-46.94 -7.57,-4.92 -7.57,-4.92 -15.3,-9.94 -39.66,-26.38 -74.56,-55.7 -108.68,-88.83 -14.22,-13.73 -28.62,-26.24 -43.94,-38.7 -193.02,-169.04 -308.17,-425.64 -345.55,-675.03 -0.66,-4.35 -1.31,-8.69 -1.99,-13.17 -19.72,-150.48 -10.28,-307.7 29.06,-453.77 1.22,-4.65 2.45,-9.29 3.71,-14.08 6.76,-25.03 14.75,-49.44 23.35,-73.89 2.41,-7.5 4.81,-14.99 7.3,-22.71 43.99,-132.12 121.29,-249.01 213.43,-352.51 9.26,-10.41 18.39,-20.91 27.52,-31.43 103.76,-117.97 236.1,-209.8 381.11,-270.08 7.07,-3.19 14.15,-6.39 21.44,-9.67 55.1,-24.59 109.52,-43.43 168.04,-58 4.29,-1.24 8.57,-2.48 12.99,-3.76 85.26,-24.58 170.49,-26.03 258.54,-26.27z"/>
  <path class="fil1" d="M3733.8 4588.85c75.69,58.41 128.41,130.04 146.13,225.52 10.07,91.1 9.49,171.11 -31.09,254.96 -2.86,6.01 -5.72,12.02 -8.67,18.22 -49.81,92.53 -136.41,155.82 -234.79,189.36 -83.91,23.39 -177.72,15.05 -257.31,-18.09 -5.95,-2.37 -11.9,-4.74 -18.03,-7.19 -94.53,-42.15 -156.32,-124.61 -198.52,-216.13 -2.45,-4.59 -4.9,-9.19 -7.43,-13.93 -33.42,-71.89 -18.53,-198.34 7.43,-270.3 47.37,-102.53 119.48,-174.82 224.59,-218.67 10.81,-3.94 21.66,-7.76 32.57,-11.42 4.35,-1.53 8.69,-3.06 13.17,-4.63 110.95,-33.65 241.59,4.39 331.96,72.3z"/>
  <path class="fil1" d="M6021.14 6111.48c86.67,-0.63 86.67,-0.63 175.1,-1.27 18.11,-0.19 36.22,-0.37 54.87,-0.56 14.54,-0.06 29.08,-0.11 43.62,-0.15 7.4,-0.11 14.8,-0.21 22.42,-0.31 57.15,-0.02 117.49,4.25 160.35,46.28 6.27,5.97 6.27,5.97 12.66,12.06 5.67,5.76 5.67,5.76 11.44,11.63 3.69,3.41 7.37,6.82 11.16,10.33 25.48,27.77 25.61,71.94 24.85,107.7 -5.28,42.22 -26.35,82.1 -56.31,112.06 -21.99,12.26 -21.99,12.26 -40.6,20.3 4.49,2.79 8.98,5.58 13.61,8.46 43.15,28.22 75.98,55.44 91.94,105.82 10.26,53.9 6.3,101.03 -21.15,148.83 -32.41,46.67 -83.52,68.84 -138.14,78.94 -35.24,4.79 -70.62,3.93 -106.12,3.75 -9.91,-0.01 -9.91,-0.01 -20.01,-0.02 -24.5,-0.04 -48.99,-0.13 -73.49,-0.22 -54.85,-0.14 -109.7,-0.28 -166.22,-0.42 0,-218.85 0,-437.71 0,-663.19z"/>
  <path class="fil1" d="M5899.33 4730.96c55.83,0 111.66,0 169.18,0 13.4,22.33 26.8,44.66 40.6,67.67 9.88,15.17 19.89,30.26 30.03,45.26 30.27,45.01 60.04,90.33 89.67,135.77 4.18,6.4 8.36,12.8 12.66,19.39 28.37,43.54 56.29,87.32 84.2,131.18 2.23,-131.76 4.46,-263.52 6.76,-399.27 53.6,0 107.19,0 162.41,0 0,218.85 0,437.71 0,663.19 -162.41,0 -162.41,0 -191.17,-26.22 -6.36,-13.74 -12.54,-27.57 -18.61,-41.45 -12.46,-20.04 -25.96,-39.35 -39.33,-58.79 -7.1,-10.64 -14.17,-21.29 -21.23,-31.96 -15.24,-22.96 -30.57,-45.87 -45.99,-68.72 -38,-56.76 -73.71,-114.06 -110,-172.13 -2.23,131.76 -4.46,263.52 -6.77,399.27 -53.59,0 -107.19,0 -162.41,0 0,-218.85 0,-437.71 0,-663.19z"/>
  <path class="fil1" d="M5114.33 4744.5c4.67,1.73 9.35,3.45 14.17,5.23 65.41,28.29 117.32,84.36 146.56,148.3 8.46,22.42 8.46,22.42 8.46,42.72 -28.05,1.58 -56.08,2.54 -84.17,3.38 -7.88,0.45 -15.76,0.91 -23.88,1.37 -44.07,0.99 -69.71,-1.52 -103.24,-31.62 -8.58,-9.04 -17.11,-18.12 -25.56,-27.28 -34.62,-17.31 -90.44,-11.19 -128.58,-6.77 -22.27,7.69 -37.07,17.83 -54.14,33.84 -6.28,5.02 -12.56,10.05 -19.04,15.23 -41.54,52.22 -42.05,116.71 -35.1,181.02 12.08,47.05 30.02,84.33 68.73,114.46 50.84,29.94 117.39,29.8 174.02,16.23 51.57,-20.87 70.93,-54.26 95.61,-103.62 -67,0 -133.99,0 -203.02,0 0,-37.96 0,-75.93 0,-115.04 116.12,0 232.25,0 351.89,0 0,199.83 0,199.83 -74.86,283.8 -37.61,34.52 -81.82,54.87 -128.15,74.87 -5.3,2.45 -10.59,4.9 -16.05,7.43 -78.66,31.97 -172.7,15.18 -248.75,-16.15 -87.37,-40.9 -139.95,-98.46 -176.21,-188.08 -14.63,-41.65 -16.81,-80.35 -16.2,-124.22 0.06,-7.44 0.12,-14.88 0.18,-22.55 1.39,-54.99 8.22,-96.26 37.46,-143.67 2.6,-4.91 5.2,-9.82 7.88,-14.88 39.69,-70.87 105.84,-120.29 181.61,-147.53 81.98,-13.66 171.97,-16.52 250.39,13.54z"/>
  <path class="fil1" d="M4667.69 6111.48c53.59,0 107.19,0 162.41,0 0,84.86 0,169.72 0,257.16 80.39,0 160.79,0 243.62,0 0,-84.86 0,-169.72 0,-257.16 55.83,0 111.66,0 169.18,0 0,218.85 0,437.71 0,663.19 -55.83,0 -111.66,0 -169.18,0 0,-89.33 0,-178.66 0,-270.69 -80.4,0 -160.79,0 -243.62,0 0,89.33 0,178.66 0,270.69 -53.6,0 -107.19,0 -162.41,0 0,-218.85 0,-437.71 0,-663.19z"/>
  <path class="fil1" d="M5351.18 6111.48c53.59,0 107.19,0 162.41,0 0.1,13.11 0.2,26.22 0.3,39.74 0.35,43.41 0.79,86.81 1.3,130.22 0.3,26.31 0.57,52.61 0.75,78.92 0.18,25.41 0.45,50.81 0.79,76.22 0.11,9.67 0.19,19.35 0.23,29.02 0.07,13.59 0.27,27.18 0.48,40.77 0.07,7.72 0.15,15.45 0.23,23.41 4.17,33.41 15.43,55.35 40.34,77.83 26.13,18.09 40.94,19.28 72.75,19.45 11.47,0.15 11.47,0.15 23.19,0.29 21.8,-1.54 36.53,-5.21 55.91,-15.09 8.24,-11.95 8.24,-11.95 13.54,-27.07 3.41,-6.1 6.82,-12.2 10.34,-18.48 10.87,-24.14 12.63,-40.17 12.89,-66.49 0.13,-8.67 0.27,-17.34 0.41,-26.27 0.05,-9.36 0.09,-18.72 0.13,-28.07 0.12,-9.65 0.24,-19.3 0.37,-28.96 0.32,-25.3 0.52,-50.59 0.7,-75.89 0.2,-25.86 0.52,-51.72 0.82,-77.57 0.58,-50.66 1.03,-101.32 1.42,-151.98 51.36,0 102.73,0 155.65,0 0.61,59.71 1.11,119.43 1.4,179.14 0.14,27.73 0.33,55.46 0.64,83.2 0.3,26.81 0.46,53.62 0.53,80.43 0.05,10.18 0.15,20.36 0.3,30.54 1.26,91.03 -15.69,157.18 -77.72,226.02 -51,49.57 -127.34,72.52 -197.09,72.75 -87.2,-1.38 -155.31,-20.67 -216.56,-83.74 -46.93,-55.15 -67.31,-121.2 -67.17,-192.68 0,-8.8 0,-17.61 0,-26.68 0.03,-9.54 0.07,-19.08 0.1,-28.63 0.02,-9.81 0.02,-19.63 0.03,-29.44 0.03,-25.75 0.09,-51.51 0.17,-77.26 0.07,-26.31 0.1,-52.62 0.13,-78.93 0.07,-51.57 0.19,-103.14 0.33,-154.71z"/>
  <path class="fil1" d="M5385.02 4730.96c133.99,0 267.98,0 406.04,0 0,42.43 0,84.86 0,128.58 -80.4,0 -160.79,0 -243.62,0 0,44.66 0,89.33 0,135.34 71.46,0 142.93,0 216.56,0 0,40.2 0,80.4 0,121.81 -71.46,0 -142.93,0 -216.56,0 0,49.13 0,98.26 0,148.88 80.39,0 160.79,0 243.62,0 0,42.43 0,84.86 0,128.58 -133.99,0 -267.98,0 -406.04,0 0,-218.85 0,-437.71 0,-663.19z"/>
  <path class="fil1" d="M6928.5 5575.12c4.29,2.81 8.57,5.62 12.98,8.51 4.77,2.95 9.54,5.9 14.46,8.94 43.1,29.16 69.46,64.82 82.4,115.41 11.93,66.87 7.34,132.91 -29.61,191.59 -31.78,40.65 -78.55,70.41 -128.15,83.32 -71.31,7.39 -131.12,5.87 -189.48,-40.6 -42.83,-38.33 -75.53,-90.68 -81.21,-148.88 -0.76,-7.04 -0.76,-7.04 -1.54,-14.22 -3.39,-56.2 13.67,-105.54 47.29,-150.65 68.28,-73.54 180.79,-104.35 272.86,-53.43z"/>
  <path class="fil1" d="M7103.9 5563.33c36.85,-0.56 73.69,-1.11 111.66,-1.69 11.52,-0.24 23.04,-0.49 34.91,-0.75 61.4,-0.76 104.39,2.37 153.73,42.62 28.93,36.72 29.62,77.37 24.53,122.24 -10.96,35.67 -28.42,61.71 -60.91,81.21 -8.93,0 -17.87,0 -27.07,0 19.67,41.91 42.87,81.11 67.09,120.5 11.21,18.35 20.83,34.96 27.65,55.44 -78.29,8.72 -78.29,8.72 -115.04,0 -25.06,-20.51 -35.13,-44.91 -47.37,-74.44 -7.09,-14.99 -14.28,-29.94 -21.57,-44.83 -3.03,-6.79 -6.06,-13.57 -9.18,-20.56 -9.31,-19 -9.31,-19 -36.93,-22.58 0,53.6 0,107.19 0,162.41 -33.5,0 -67,0 -101.51,0 0,-138.46 0,-276.91 0,-419.57z"/>
  <path class="fil1" d="M5114.33 5563.33c36.57,-0.83 73.13,-1.67 110.81,-2.54 11.4,-0.37 22.79,-0.74 34.54,-1.12 59.89,-1.13 105.28,2.65 152.41,44.26 28.33,31.46 30.98,62.76 29.21,104.36 -4.86,39.58 -25.62,63.52 -52.24,91.2 -10.81,7.46 -10.81,7.46 -37.88,7.46 22.52,47.97 48.65,92.33 77.32,136.8 10.65,18.85 10.65,18.85 10.65,39.15 -37.96,0 -75.93,0 -115.04,0 -6.91,-14.02 -6.91,-14.02 -13.96,-28.33 -6.61,-13.12 -13.24,-26.23 -19.88,-39.33 -3.91,-7.87 -7.81,-15.74 -11.84,-23.85 -4.05,-7.9 -8.1,-15.81 -12.27,-23.95 -3.78,-7.48 -7.56,-14.95 -11.44,-22.65 -11,-20.53 -11,-20.53 -38.89,-24.3 0,53.6 0,107.19 0,162.41 -33.5,0 -67,0 -101.51,0 0,-138.46 0,-276.91 0,-419.57z"/>
  <path class="fil1" d="M5946.7 5563.33c40.2,0 80.4,0 121.81,0 39.13,85.79 72.19,173.44 103.02,262.48 5.5,15.67 11.15,31.28 16.83,46.89 1.89,5.21 3.77,10.42 5.71,15.79 3.61,9.98 7.26,19.96 10.94,29.92 8.33,23.15 12.37,39.55 12.37,64.5 -33.5,0 -66.99,0 -101.51,0 -20.3,-51.6 -20.3,-51.6 -20.3,-74.44 -53.59,2.23 -107.19,4.46 -162.41,6.77 -6.7,22.33 -13.4,44.66 -20.3,67.67 -35.73,0 -71.46,0 -108.28,0 15.01,-59.2 34.5,-116 55.15,-173.39 10.11,-28.29 19.97,-56.67 29.86,-85.03 18.8,-53.8 37.86,-107.5 57.1,-161.15z"/>
  <path class="fil1" d="M4950.69 5574.67c45.02,27.35 79.12,59.5 95.96,110.47 0,6.7 0,13.4 0,20.3 -17.35,0.92 -34.66,1.59 -52.02,2.11 -4.88,0.29 -9.76,0.57 -14.79,0.86 -28.36,0.65 -38.09,-0.12 -60.63,-19.18 -7.26,-8.73 -7.26,-8.73 -14.67,-17.63 -30.33,-20.22 -59.2,-17.5 -94.74,-13.54 -28.46,12.2 -41.33,24.57 -53.29,52.44 -13.81,44.38 -11.34,82.28 6.43,125.11 11.24,21.4 25.43,35.04 46.87,45.76 46.44,5.18 77.08,0.39 115.04,-27.07 3.35,-6.7 3.35,-6.7 6.77,-13.53 37.96,0 75.93,0 115.04,0 -21.14,63.42 -48.35,94.95 -106.45,127.7 -47.02,23.39 -111.54,21.66 -162.47,10.26 -55.9,-22.54 -107.01,-68.05 -131.59,-123.29 -15.42,-59.84 -17.5,-133.16 9.28,-189.78 62.73,-101 186.07,-143.41 295.27,-91.02z"/>
  <path class="fil1" d="M5506.83 5556.57c84.86,0 169.72,0 257.16,0 0,29.03 0,58.06 0,87.97 -51.37,0 -102.73,0 -155.65,0 0,26.8 0,53.6 0,81.21 44.67,0 89.33,0 135.35,0 0,26.8 0,53.59 0,81.2 -44.67,0 -89.33,0 -135.35,0 0,31.27 0,62.53 0,94.74 51.36,0 102.73,0 155.65,0 0,26.8 0,53.59 0,81.2 -84.86,0 -169.72,0 -257.16,0 0,-140.69 0,-281.38 0,-426.33z"/>
  <path class="fil1" d="M6251.22 5563.33c107.19,0 214.39,0 324.83,0 0,24.57 0,49.13 0,74.44 -37.97,0 -75.93,0 -115.05,0 0,111.66 0,223.31 0,338.36 -31.26,0 -62.53,0 -94.74,0 0,-111.66 0,-223.31 0,-338.36 -37.96,0 -75.93,0 -115.04,0 0,-24.57 0,-49.13 0,-74.44z"/>
  <path class="fil2" d="M6867.04 5651.31c37.01,16.15 59.09,44.37 74.44,81.21 9.04,44.33 -3.57,83.98 -27.07,121.81 -34.09,33.26 -64.19,36.26 -110.13,35.72 -26.23,-2.67 -39.84,-11.14 -59.06,-28.95 -24.67,-31.05 -30.77,-51.84 -30.45,-91.36 -0.1,-12.87 -0.1,-12.87 -0.21,-26.01 5.25,-36.13 21.55,-56.69 47.58,-81.42 35,-16.25 66.95,-16 104.89,-11z"/>
  <path class="fil2" d="M6183.55 6497.22c23.59,-0.56 47.18,-1.12 71.48,-1.69 7.34,-0.25 14.68,-0.5 22.25,-0.75 42.51,-0.48 68.09,4 102.52,29.51 12.58,25.16 10.69,53.82 6.77,81.21 -17.1,22.64 -27.33,31.67 -54.14,40.6 -11.5,0.55 -23.03,0.73 -34.55,0.66 -8.99,-0.03 -8.99,-0.03 -18.17,-0.05 -7.59,-0.06 -15.18,-0.12 -23,-0.19 -24.14,-0.14 -48.29,-0.28 -73.17,-0.42 0,-49.13 0,-98.26 0,-148.88z"/>
  <path class="fil2" d="M6183.55 6240.06c21.5,-0.42 42.99,-0.84 65.13,-1.27 10.04,-0.28 10.04,-0.28 20.3,-0.56 35.21,-0.33 60.39,1.74 90.52,22.13 16.68,25.02 18.96,45.43 13.54,74.44 -10.94,20.31 -24.11,37.24 -46.61,45.03 -15.3,2.5 -29.57,3.11 -45.06,3 -5.15,-0.02 -10.31,-0.04 -15.62,-0.05 -9.7,-0.09 -9.7,-0.09 -19.59,-0.19 -30.98,-0.21 -30.98,-0.21 -62.6,-0.43 0,-46.89 0,-93.79 0,-142.11z"/>
  <path class="fil2" d="M7205.41 5644.54c82.58,-3.33 82.58,-3.33 107.59,12.13 14.22,14.94 14.22,14.94 17.19,39.05 -2.96,23.26 0.24,22.1 -13.29,42.4 -1.43,11.84 -0.24,11.59 -16.74,14.7 -31.26,0 -62.53,0 -94.74,0 0,-35.73 0,-71.46 0,-108.28z"/>
  <path class="fil2" d="M5215.83 5644.54c13.96,-0.42 27.91,-0.83 42.3,-1.27 11.78,-0.35 11.78,-0.35 23.79,-0.72 23.73,2.15 33,4.78 48.96,22.29 3.59,14.35 3.59,14.35 3.38,30.03 0.07,5.15 0.14,10.31 0.21,15.62 -5.08,21.57 -12.78,29.37 -30.67,42.32 -29.72,3.59 -57.92,1.2 -87.97,0 0,-35.73 0,-71.46 0,-108.28z"/>
  <path class="fil2 str1" d="M6007.61 5685.14c17.21,8.61 17.5,14.07 23.74,31.88 1.79,5.08 3.57,10.15 5.42,15.39 1.82,5.34 3.65,10.68 5.52,16.18 1.88,5.29 3.75,10.57 5.69,16.02 13.77,39.62 13.77,39.62 13.77,62.65 -33.5,0 -67,0 -101.51,0 4.5,-22.47 8.37,-40.05 16.31,-60.82 1.81,-4.78 3.62,-9.56 5.48,-14.48 1.88,-4.88 3.76,-9.76 5.7,-14.79 2.86,-7.52 2.86,-7.52 5.78,-15.19 4.68,-12.29 9.39,-24.56 14.11,-36.84z"/>
  <path class="fil3" d="M2354.13 5594.63c-2.35,5.39 -4.71,10.78 -7.14,16.34 -7.24,13.27 -7.24,13.27 -20.78,20.04 -6.28,23.13 -7.93,45.83 -8.91,69.7 -0.28,6.61 -0.57,13.22 -0.86,20.03 -0.26,6.81 -0.53,13.63 -0.8,20.66 -0.29,6.95 -0.58,13.89 -0.89,21.06 -0.72,17.09 -1.41,34.18 -2.07,51.27 -2.24,0 -4.47,0 -6.77,0 -16.19,-72.83 -14.88,-164.2 25.43,-228.87 5.06,-6.53 73.49,-103.8 22.79,9.78"/>
  <image x="-14097.01" y="-555.7" width="6458.33" height="12055.55" xlink:href="Recovered_HUB_Images/Recovered_HUB_ImgID1.png"/>
 </g>
</svg>
